<?xml version="1.0" encoding="UTF-8"?>
<svg id="Camada_1" xmlns="http://www.w3.org/2000/svg" version="1.1" xmlns:xlink="http://www.w3.org/1999/xlink" viewBox="0 0 792 1495.8">
  <!-- Generator: Adobe Illustrator 30.2.1, SVG Export Plug-In . SVG Version: 2.1.1 Build 1)  -->
  <defs>
    <style>
      .st0 {
        fill: url(#Gradiente_sem_nome_137);
      }

      .st1 {
        fill: url(#Gradiente_sem_nome_75);
      }

      .st2 {
        fill: url(#Gradiente_sem_nome_1374);
      }

      .st3 {
        fill: #4f4f4f;
      }

      .st4 {
        fill: url(#Gradiente_sem_nome_13724);
      }

      .st5 {
        fill: url(#Gradiente_sem_nome_1375);
      }

      .st6 {
        fill: url(#Gradiente_sem_nome_1373);
      }

      .st7 {
        fill: url(#Gradiente_sem_nome_13722);
      }

      .st8 {
        fill: url(#Gradiente_sem_nome_13715);
      }

      .st9 {
        fill: url(#Gradiente_sem_nome_13710);
      }

      .st10 {
        fill: url(#Gradiente_sem_nome_13720);
      }

      .st11 {
        fill: url(#Gradiente_sem_nome_13732);
      }

      .st12 {
        fill: url(#Gradiente_sem_nome_74);
      }

      .st13 {
        fill: #3fe0d0;
      }

      .st14 {
        fill: url(#Gradiente_sem_nome_13714);
      }

      .st15 {
        fill: url(#Gradiente_sem_nome_13718);
      }

      .st16 {
        fill: url(#Gradiente_sem_nome_13711);
      }

      .st17 {
        fill: url(#Gradiente_sem_nome_13717);
      }

      .st18 {
        fill: url(#Gradiente_sem_nome_13713);
      }

      .st19 {
        fill: url(#Gradiente_sem_nome_13716);
      }

      .st20 {
        fill: #1ed6d6;
      }

      .st21 {
        fill: url(#Gradiente_sem_nome_1371);
      }

      .st22 {
        fill: url(#Gradiente_sem_nome_72);
      }

      .st23 {
        fill: url(#Gradiente_sem_nome_13728);
      }

      .st24 {
        fill: url(#Gradiente_sem_nome_73);
      }

      .st25 {
        fill: url(#Gradiente_sem_nome_13735);
      }

      .st26 {
        fill: url(#Gradiente_sem_nome_13721);
      }

      .st27 {
        fill: url(#Gradiente_sem_nome_1372);
      }

      .st28 {
        fill: url(#Gradiente_sem_nome_1377);
      }

      .st29 {
        fill: url(#Gradiente_sem_nome_1379);
      }

      .st30 {
        fill: url(#Gradiente_sem_nome_13726);
      }

      .st31 {
        fill: url(#Gradiente_sem_nome_13731);
      }

      .st32 {
        fill: url(#Gradiente_sem_nome_71);
      }

      .st33 {
        fill: url(#Gradiente_sem_nome_7);
      }

      .st34 {
        fill: url(#Gradiente_sem_nome_1376);
      }

      .st35 {
        fill: url(#Gradiente_sem_nome_13730);
      }

      .st36 {
        fill: url(#Gradiente_sem_nome_13719);
      }

      .st37 {
        fill: url(#Gradiente_sem_nome_13729);
      }

      .st38 {
        fill: #2e9aa0;
      }

      .st39 {
        fill: url(#Gradiente_sem_nome_13725);
      }

      .st40 {
        fill: url(#Gradiente_sem_nome_13727);
      }

      .st41 {
        fill: url(#Gradiente_sem_nome_13733);
      }

      .st42 {
        fill: url(#Gradiente_sem_nome_13723);
      }

      .st43 {
        fill: url(#Gradiente_sem_nome_13734);
      }

      .st44 {
        fill: url(#Gradiente_sem_nome_1378);
      }

      .st45 {
        fill: #00e5ff;
      }

      .st46 {
        fill: url(#Gradiente_sem_nome_13712);
      }
    </style>
    <linearGradient id="Gradiente_sem_nome_7" data-name="Gradiente sem nome 7" x1="470.93" y1="309.27" x2="264.78" y2="211.15" gradientUnits="userSpaceOnUse">
      <stop offset="0" stop-color="#7c7c7c"/>
      <stop offset="1" stop-color="#4f4f4f"/>
    </linearGradient>
    <linearGradient id="Gradiente_sem_nome_71" data-name="Gradiente sem nome 7" x1="462.55" y1="326.52" x2="265.1" y2="232.54" xlink:href="#Gradiente_sem_nome_7"/>
    <linearGradient id="Gradiente_sem_nome_72" data-name="Gradiente sem nome 7" x1="524.18" y1="197.01" x2="399.67" y2="137.74" xlink:href="#Gradiente_sem_nome_7"/>
    <linearGradient id="Gradiente_sem_nome_73" data-name="Gradiente sem nome 7" x1="505.83" y1="235.57" x2="308.38" y2="141.59" xlink:href="#Gradiente_sem_nome_7"/>
    <linearGradient id="Gradiente_sem_nome_74" data-name="Gradiente sem nome 7" x1="502.71" y1="242.04" x2="305.3" y2="148.08" xlink:href="#Gradiente_sem_nome_7"/>
    <linearGradient id="Gradiente_sem_nome_75" data-name="Gradiente sem nome 7" x1="478.34" y1="293.32" x2="280.9" y2="199.35" xlink:href="#Gradiente_sem_nome_7"/>
    <linearGradient id="Gradiente_sem_nome_137" data-name="Gradiente sem nome 137" x1="565.5" y1="194.43" x2="431.61" y2="131.55" gradientUnits="userSpaceOnUse">
      <stop offset="0" stop-color="#00e5ff"/>
      <stop offset="1" stop-color="#2e9aa0"/>
    </linearGradient>
    <linearGradient id="Gradiente_sem_nome_1371" data-name="Gradiente sem nome 137" x1="572.69" y1="179.12" x2="438.8" y2="116.24" xlink:href="#Gradiente_sem_nome_137"/>
    <linearGradient id="Gradiente_sem_nome_1372" data-name="Gradiente sem nome 137" x1="579.65" y1="164.29" x2="445.76" y2="101.41" xlink:href="#Gradiente_sem_nome_137"/>
    <linearGradient id="Gradiente_sem_nome_1373" data-name="Gradiente sem nome 137" x1="551.57" y1="224.09" x2="417.68" y2="161.21" xlink:href="#Gradiente_sem_nome_137"/>
    <linearGradient id="Gradiente_sem_nome_1374" data-name="Gradiente sem nome 137" x1="557.11" y1="212.3" x2="423.22" y2="149.41" xlink:href="#Gradiente_sem_nome_137"/>
    <linearGradient id="Gradiente_sem_nome_1375" data-name="Gradiente sem nome 137" x1="557.99" y1="210.42" x2="424.1" y2="147.54" xlink:href="#Gradiente_sem_nome_137"/>
    <linearGradient id="Gradiente_sem_nome_1376" data-name="Gradiente sem nome 137" x1="550.97" y1="225.37" x2="417.08" y2="162.48" xlink:href="#Gradiente_sem_nome_137"/>
    <linearGradient id="Gradiente_sem_nome_1377" data-name="Gradiente sem nome 137" x1="553.17" y1="220.69" x2="419.28" y2="157.81" xlink:href="#Gradiente_sem_nome_137"/>
    <linearGradient id="Gradiente_sem_nome_1378" data-name="Gradiente sem nome 137" x1="555.65" y1="215.4" x2="421.76" y2="152.52" xlink:href="#Gradiente_sem_nome_137"/>
    <linearGradient id="Gradiente_sem_nome_1379" data-name="Gradiente sem nome 137" x1="546.37" y1="235.16" x2="412.48" y2="172.28" xlink:href="#Gradiente_sem_nome_137"/>
    <linearGradient id="Gradiente_sem_nome_13710" data-name="Gradiente sem nome 137" x1="538.93" y1="250.99" x2="405.05" y2="188.11" xlink:href="#Gradiente_sem_nome_137"/>
    <linearGradient id="Gradiente_sem_nome_13711" data-name="Gradiente sem nome 137" x1="546.79" y1="234.27" x2="412.9" y2="171.39" xlink:href="#Gradiente_sem_nome_137"/>
    <linearGradient id="Gradiente_sem_nome_13712" data-name="Gradiente sem nome 137" x1="548.27" y1="231.1" x2="414.39" y2="168.22" xlink:href="#Gradiente_sem_nome_137"/>
    <linearGradient id="Gradiente_sem_nome_13713" data-name="Gradiente sem nome 137" x1="520.65" y1="289.92" x2="386.76" y2="227.04" xlink:href="#Gradiente_sem_nome_137"/>
    <linearGradient id="Gradiente_sem_nome_13714" data-name="Gradiente sem nome 137" x1="277.7" y1="243.26" x2="437.13" y2="292.08" xlink:href="#Gradiente_sem_nome_137"/>
    <linearGradient id="Gradiente_sem_nome_13715" data-name="Gradiente sem nome 137" x1="278" y1="242.27" x2="437.43" y2="291.1" xlink:href="#Gradiente_sem_nome_137"/>
    <linearGradient id="Gradiente_sem_nome_13716" data-name="Gradiente sem nome 137" x1="273.99" y1="255.38" x2="433.42" y2="304.2" xlink:href="#Gradiente_sem_nome_137"/>
    <linearGradient id="Gradiente_sem_nome_13717" data-name="Gradiente sem nome 137" x1="297.57" y1="178.37" x2="457" y2="227.2" xlink:href="#Gradiente_sem_nome_137"/>
    <linearGradient id="Gradiente_sem_nome_13718" data-name="Gradiente sem nome 137" x1="316.5" y1="116.57" x2="475.93" y2="165.4" xlink:href="#Gradiente_sem_nome_137"/>
    <linearGradient id="Gradiente_sem_nome_13719" data-name="Gradiente sem nome 137" x1="272.56" y1="260.02" x2="432" y2="308.85" xlink:href="#Gradiente_sem_nome_137"/>
    <linearGradient id="Gradiente_sem_nome_13720" data-name="Gradiente sem nome 137" x1="434.75" y1="113.92" x2="560.08" y2="145.14" xlink:href="#Gradiente_sem_nome_137"/>
    <linearGradient id="Gradiente_sem_nome_13721" data-name="Gradiente sem nome 137" x1="438.4" y1="99.27" x2="563.73" y2="130.49" xlink:href="#Gradiente_sem_nome_137"/>
    <linearGradient id="Gradiente_sem_nome_13722" data-name="Gradiente sem nome 137" x1="425.12" y1="152.56" x2="550.46" y2="183.79" xlink:href="#Gradiente_sem_nome_137"/>
    <linearGradient id="Gradiente_sem_nome_13723" data-name="Gradiente sem nome 137" x1="429.12" y1="136.51" x2="554.46" y2="167.73" xlink:href="#Gradiente_sem_nome_137"/>
    <linearGradient id="Gradiente_sem_nome_13724" data-name="Gradiente sem nome 137" x1="424.53" y1="154.92" x2="549.87" y2="186.15" xlink:href="#Gradiente_sem_nome_137"/>
    <linearGradient id="Gradiente_sem_nome_13725" data-name="Gradiente sem nome 137" x1="420.56" y1="170.86" x2="545.9" y2="202.09" xlink:href="#Gradiente_sem_nome_137"/>
    <linearGradient id="Gradiente_sem_nome_13726" data-name="Gradiente sem nome 137" x1="420.42" y1="171.43" x2="545.75" y2="202.66" xlink:href="#Gradiente_sem_nome_137"/>
    <linearGradient id="Gradiente_sem_nome_13727" data-name="Gradiente sem nome 137" x1="420.48" y1="171.21" x2="545.81" y2="202.44" xlink:href="#Gradiente_sem_nome_137"/>
    <linearGradient id="Gradiente_sem_nome_13728" data-name="Gradiente sem nome 137" x1="420.38" y1="171.58" x2="545.72" y2="202.81" xlink:href="#Gradiente_sem_nome_137"/>
    <linearGradient id="Gradiente_sem_nome_13729" data-name="Gradiente sem nome 137" x1="416.25" y1="188.17" x2="541.58" y2="219.4" xlink:href="#Gradiente_sem_nome_137"/>
    <linearGradient id="Gradiente_sem_nome_13730" data-name="Gradiente sem nome 137" x1="414.85" y1="193.77" x2="540.19" y2="225" xlink:href="#Gradiente_sem_nome_137"/>
    <linearGradient id="Gradiente_sem_nome_13731" data-name="Gradiente sem nome 137" x1="417.19" y1="184.41" x2="542.52" y2="215.63" xlink:href="#Gradiente_sem_nome_137"/>
    <linearGradient id="Gradiente_sem_nome_13732" data-name="Gradiente sem nome 137" x1="399.41" y1="255.74" x2="524.75" y2="286.97" xlink:href="#Gradiente_sem_nome_137"/>
    <linearGradient id="Gradiente_sem_nome_13733" data-name="Gradiente sem nome 137" x1="404.01" y1="237.29" x2="529.35" y2="268.52" xlink:href="#Gradiente_sem_nome_137"/>
    <linearGradient id="Gradiente_sem_nome_13734" data-name="Gradiente sem nome 137" x1="407.26" y1="224.25" x2="532.59" y2="255.48" xlink:href="#Gradiente_sem_nome_137"/>
    <linearGradient id="Gradiente_sem_nome_13735" data-name="Gradiente sem nome 137" x1="401.77" y1="246.31" x2="527.1" y2="277.53" xlink:href="#Gradiente_sem_nome_137"/>
  </defs>
  <g>
    <polygon class="st3" points="578.46 463.18 578.46 471.59 668.32 467.39 578.46 463.18"/>
    <polygon class="st3" points="213.63 471.59 213.63 463.18 123.77 467.38 213.63 471.59"/>
  </g>
  <g>
    <path class="st3" d="M180.01,346.45h-27.24l-28.99,85.34h16.6l7.48-22.56h37.19l7.7,22.56h17.19l-29.93-85.34ZM152.56,395.08l11.52-34.72h4.3l11.85,34.72h-27.67Z"/>
    <path class="st3" d="M271.02,385.39c-4.56-2.1-9.92-3.39-16.07-3.86l-7.37-.7c-4.21-.31-7.29-1.46-9.24-3.45-1.95-1.99-2.92-4.31-2.92-6.96,0-2.18.54-4.19,1.64-6.02,1.09-1.83,2.71-3.31,4.85-4.44,2.14-1.13,4.85-1.7,8.12-1.7s6.27.62,8.53,1.87c2.26,1.25,3.93,2.86,5.03,4.85,1.09,1.99,1.64,4.11,1.64,6.37h16.25c0-5.53-1.27-10.35-3.8-14.44-2.53-4.09-6.16-7.27-10.87-9.53-4.72-2.26-10.31-3.39-16.78-3.39s-11.67,1.07-16.31,3.21c-4.64,2.14-8.24,5.18-10.81,9.12-2.57,3.94-3.86,8.63-3.86,14.09,0,7.25,2.43,13.08,7.31,17.48,4.87,4.4,11.4,6.96,19.58,7.66l7.48.7c5.45.47,9.47,1.62,12.04,3.45,2.57,1.83,3.86,4.23,3.86,7.19,0,2.42-.68,4.58-2.05,6.49-1.36,1.91-3.39,3.45-6.08,4.62-2.69,1.17-6.1,1.75-10.23,1.75-4.44,0-8.05-.66-10.81-1.99-2.77-1.32-4.77-3.06-6.02-5.2-1.25-2.14-1.87-4.34-1.87-6.61h-16.25c0,5.38,1.34,10.19,4.03,14.44,2.69,4.25,6.64,7.58,11.87,10,5.22,2.42,11.57,3.62,19.06,3.62,7.09,0,13.23-1.13,18.41-3.39,5.18-2.26,9.18-5.44,11.98-9.53,2.81-4.09,4.21-8.83,4.21-14.2,0-5.07-1.29-9.39-3.86-12.98-2.57-3.58-6.14-6.43-10.7-8.53Z"/>
    <polygon class="st3" points="290.6 361.07 315.27 361.07 315.27 431.8 331.87 431.8 331.87 361.07 356.53 361.07 356.53 346.46 290.6 346.46 290.6 361.07"/>
    <path class="st3" d="M449.59,371.99c-1.87-5.18-4.69-9.87-8.47-14.08-3.78-4.22-8.5-7.58-14.15-10.11-5.65-2.53-12.22-3.8-19.7-3.8s-14.03,1.27-19.64,3.8c-5.61,2.53-10.31,5.9-14.09,10.11-3.78,4.21-6.6,8.9-8.47,14.08-1.87,5.19-2.81,10.39-2.81,15.61v2.57c0,4.76.89,9.69,2.69,14.79,1.79,5.11,4.54,9.88,8.24,14.33,3.7,4.44,8.37,8,14.03,10.69,5.65,2.68,12.33,4.03,20.05,4.03s14.4-1.35,20.05-4.03c5.65-2.69,10.32-6.25,14.03-10.69,3.71-4.44,6.47-9.22,8.3-14.33,1.83-5.1,2.75-10.03,2.75-14.79v-2.57c0-5.22-.94-10.42-2.81-15.61ZM433.64,400.29c-1.29,3.55-3.16,6.7-5.61,9.47-2.46,2.77-5.44,4.93-8.94,6.49-3.51,1.56-7.44,2.34-11.81,2.34s-8.18-.78-11.69-2.34c-3.51-1.56-6.49-3.72-8.94-6.49-2.45-2.77-4.33-5.92-5.62-9.47-1.28-3.55-1.93-7.31-1.93-11.28,0-4.21.65-8.11,1.93-11.7,1.29-3.58,3.16-6.72,5.62-9.41,2.46-2.69,5.44-4.77,8.94-6.25,3.51-1.48,7.4-2.22,11.69-2.22s8.28.74,11.76,2.22c3.46,1.48,6.43,3.56,8.88,6.25,2.46,2.68,4.34,5.83,5.67,9.41,1.32,3.59,1.98,7.48,1.98,11.7,0,3.97-.64,7.73-1.93,11.28Z"/>
    <path class="st3" d="M517.08,400.54c.22-.08.45-.17.67-.26,4.99-1.99,8.86-5.03,11.63-9.13,2.76-4.08,4.15-9.25,4.15-15.48v-1.87c0-6.31-1.36-11.51-4.09-15.61-2.73-4.09-6.61-7.17-11.63-9.23-5.03-2.07-10.98-3.1-17.83-3.1h-31.68v85.93h16.61v-28.52h15.08c.09,0,.19,0,.27,0l20.06,28.53h19.53l-22.77-31.25ZM514.77,382.75c-1.21,2.22-2.92,3.96-5.15,5.21-2.22,1.24-4.85,1.87-7.89,1.87h-16.83v-29.81h16.83c3.04,0,5.67.64,7.89,1.93,2.22,1.29,3.93,3.04,5.15,5.26,1.21,2.22,1.81,4.81,1.81,7.78s-.6,5.55-1.81,7.77Z"/>
    <rect class="st3" x="552.7" y="346.46" width="16.6" height="85.34"/>
    <path class="st3" d="M638.4,346.45h-27.24l-29,85.34h16.61l7.48-22.56h37.19l7.7,22.56h17.19l-29.93-85.34ZM610.94,395.08l11.52-34.72h4.3l11.84,34.72h-27.67Z"/>
  </g>
  <g>
    <path class="st20" d="M254.98,464.68c-1.48-.68-3.22-1.1-5.22-1.26l-2.39-.22c-1.37-.1-2.37-.48-3-1.12-.63-.64-.94-1.39-.94-2.25,0-.71.17-1.36.53-1.95.35-.6.88-1.08,1.58-1.44.7-.37,1.57-.56,2.64-.56s2.04.2,2.77.61c.73.4,1.28.93,1.63,1.57.35.64.53,1.33.53,2.07h5.27c0-1.79-.41-3.36-1.23-4.69-.82-1.33-2-2.36-3.53-3.09-1.53-.73-3.35-1.1-5.45-1.1s-3.79.35-5.29,1.05c-1.51.7-2.68,1.68-3.51,2.96-.84,1.28-1.26,2.8-1.26,4.58,0,2.35.79,4.25,2.37,5.67,1.58,1.43,3.7,2.26,6.36,2.49l2.43.23c1.77.15,3.08.52,3.91,1.12.83.59,1.25,1.37,1.25,2.34,0,.78-.22,1.48-.66,2.11-.45.62-1.1,1.12-1.97,1.49-.87.38-1.99.57-3.33.57-1.44,0-2.61-.22-3.5-.65-.9-.43-1.55-.99-1.96-1.69-.4-.7-.61-1.41-.61-2.15h-5.27c0,1.74.43,3.31,1.31,4.69s2.16,2.46,3.85,3.24c1.7.79,3.76,1.18,6.19,1.18s4.3-.37,5.98-1.1c1.68-.73,2.97-1.76,3.89-3.09.91-1.33,1.37-2.87,1.37-4.61,0-1.65-.42-3.05-1.25-4.21-.84-1.17-1.99-2.09-3.47-2.77Z"/>
    <polygon class="st20" points="296.49 465.06 295.08 465.06 288.89 452.04 283.35 452.04 291.66 469.16 293.02 469.16 293.02 479.75 298.34 479.75 298.34 469.16 299.7 469.16 307.41 452.04 302.17 452.04 296.49 465.06"/>
    <path class="st20" d="M349.06,464.68c-1.48-.68-3.22-1.1-5.22-1.26l-2.39-.22c-1.37-.1-2.37-.48-3-1.12-.63-.64-.94-1.39-.94-2.25,0-.71.17-1.36.53-1.95.35-.6.87-1.08,1.57-1.44.7-.37,1.58-.56,2.64-.56s2.04.2,2.77.61c.73.4,1.28.93,1.63,1.57.36.64.53,1.33.53,2.07h5.28c0-1.79-.42-3.36-1.23-4.69-.82-1.33-2-2.36-3.53-3.09-1.53-.73-3.35-1.1-5.45-1.1s-3.79.35-5.3,1.05c-1.51.7-2.67,1.68-3.51,2.96-.83,1.28-1.25,2.8-1.25,4.58,0,2.35.79,4.25,2.37,5.67,1.58,1.43,3.7,2.26,6.36,2.49l2.43.23c1.77.15,3.08.52,3.91,1.12.84.59,1.26,1.37,1.26,2.34,0,.78-.22,1.48-.67,2.11-.44.62-1.1,1.12-1.97,1.49-.87.38-1.98.57-3.32.57-1.44,0-2.61-.22-3.51-.65-.89-.43-1.55-.99-1.95-1.69-.4-.7-.61-1.41-.61-2.15h-5.27c0,1.74.43,3.31,1.31,4.69.87,1.38,2.16,2.46,3.85,3.24,1.7.79,3.76,1.18,6.19,1.18s4.3-.37,5.98-1.1c1.68-.73,2.98-1.76,3.89-3.09s1.37-2.87,1.37-4.61c0-1.65-.41-3.05-1.25-4.21-.84-1.17-1.99-2.09-3.47-2.77Z"/>
    <polygon class="st20" points="378.19 456.79 386.2 456.79 386.2 479.75 391.59 479.75 391.59 456.79 399.6 456.79 399.6 452.04 378.19 452.04 378.19 456.79"/>
    <polygon class="st20" points="431.93 467.95 442.75 467.95 442.75 463.39 431.93 463.39 431.93 456.59 443.43 456.59 443.43 452.04 431.93 452.04 431.17 452.04 426.65 452.04 426.65 479.75 431.17 479.75 431.93 479.75 443.74 479.75 443.74 475.19 431.93 475.19 431.93 467.95"/>
    <polygon class="st20" points="487.04 468.59 486.36 468.59 479.41 452.04 472.04 452.04 472.04 479.75 476.98 479.75 476.98 457.9 483.77 474.09 489.28 474.09 496.07 457.81 496.07 479.75 501.42 479.75 501.42 452.04 493.95 452.04 487.04 468.59"/>
    <path class="st20" d="M550.42,467.45c-.84-1.17-1.99-2.09-3.47-2.77-1.48-.68-3.22-1.1-5.22-1.26l-2.39-.22c-1.37-.1-2.37-.48-3-1.12-.63-.64-.94-1.39-.94-2.25,0-.71.17-1.36.53-1.95.35-.6.88-1.08,1.58-1.44.7-.37,1.57-.56,2.64-.56s2.04.2,2.77.61c.73.4,1.28.93,1.63,1.57.36.64.54,1.33.54,2.07h5.27c0-1.79-.41-3.36-1.23-4.69-.82-1.33-2-2.36-3.53-3.09-1.53-.73-3.35-1.1-5.45-1.1s-3.79.35-5.3,1.05c-1.5.7-2.67,1.68-3.5,2.96-.84,1.28-1.26,2.8-1.26,4.58,0,2.35.79,4.25,2.37,5.67,1.58,1.43,3.7,2.26,6.36,2.49l2.43.23c1.77.15,3.08.52,3.91,1.12.83.59,1.25,1.37,1.25,2.34,0,.78-.22,1.48-.66,2.11-.45.62-1.1,1.12-1.97,1.49-.87.38-1.99.57-3.33.57-1.44,0-2.61-.22-3.51-.65-.89-.43-1.54-.99-1.95-1.69-.4-.7-.61-1.41-.61-2.15h-5.27c0,1.74.43,3.31,1.31,4.69.87,1.38,2.16,2.46,3.85,3.24,1.7.79,3.76,1.18,6.19,1.18s4.3-.37,5.98-1.1c1.68-.73,2.98-1.76,3.89-3.09s1.37-2.87,1.37-4.61c0-1.65-.41-3.05-1.25-4.21Z"/>
  </g>
  <g>
    <path class="st3" d="M134.24,501.65c-.28-.72-.7-1.36-1.26-1.92-.56-.55-1.25-.98-2.09-1.29-.83-.31-1.8-.47-2.9-.47h-1.88v2.92h2.01c.52,0,.99.07,1.42.21.41.14.77.35,1.06.62.3.27.52.62.67,1.02.16.41.24.88.24,1.42s-.08.98-.24,1.39c-.15.41-.37.75-.67,1.04-.29.28-.64.5-1.06.65-.42.15-.89.22-1.42.22h-2.01v2.92h1.88c1.1,0,2.07-.16,2.9-.51.83-.34,1.53-.8,2.09-1.37.56-.57.98-1.23,1.26-1.95.28-.72.42-1.45.42-2.2v-.37c0-.81-.14-1.58-.42-2.31ZM123.33,497.97v12.4h3.12v-12.4h-3.12Z"/>
    <path class="st3" d="M136.4,498.07v12.24h3.11v-12.24h-3.11Z"/>
    <path class="st3" d="M147.61,503.8v2.18h6.81v-2.18h-6.81ZM150.56,506.62c-.2.29-.48.53-.82.73-.51.29-1.11.43-1.8.43-.55,0-1.03-.09-1.46-.26-.42-.18-.77-.44-1.05-.76-.28-.33-.49-.72-.64-1.16-.15-.44-.21-.92-.21-1.43s.07-.99.2-1.42c.14-.44.34-.82.6-1.13.26-.31.59-.57.97-.73.38-.17.83-.26,1.33-.26s.99.09,1.4.26c.41.17.74.41.99.7.26.3.42.63.49.99h3.12c-.09-.96-.4-1.81-.93-2.53-.52-.73-1.22-1.31-2.09-1.72-.86-.41-1.86-.62-2.99-.62-1.05,0-1.96.19-2.75.55-.78.36-1.43.84-1.96,1.44-.52.6-.91,1.28-1.16,2.02-.26.75-.39,1.5-.39,2.25v.37c0,.7.13,1.42.37,2.16.25.74.63,1.42,1.15,2.05.53.62,1.2,1.13,2.03,1.52.83.38,1.81.57,2.97.57,1.24,0,2.33-.24,3.28-.71.94-.48,1.67-1.16,2.19-2.04v-2.52h-2.85v1.24Z"/>
    <path class="st3" d="M156.03,498.07v12.24h3.12v-12.24h-3.12Z"/>
    <path class="st3" d="M164.11,500.45v9.85h3.11v-9.85h-3.11ZM160.76,498.07v2.72h9.82v-2.72h-9.82Z"/>
    <path class="st3" d="M178.69,504.93h-4.64l-.94,2.54h6.52l-.94-2.54ZM178.82,498.07h-4.99l-3.92,12.24h3.12l.87-2.84.77-2.54,1.32-4.34h.63l1.35,4.34.8,2.54.89,2.84h3.22l-4.06-12.24Z"/>
    <path class="st3" d="M187.04,507.59v2.71h4.96v-2.71h-4.96ZM184.25,498.07v12.24h3.12v-12.24h-3.12Z"/>
    <path class="st3" d="M205.93,504.69c-.4-.55-.96-.98-1.66-1.3-.7-.32-1.51-.52-2.43-.59l-.78-.07c-.53-.05-.89-.18-1.11-.4-.21-.22-.31-.49-.31-.81,0-.24.05-.45.17-.64.12-.19.3-.34.52-.44.22-.1.51-.16.84-.16.36,0,.67.06.91.19.26.13.45.31.58.53.13.22.2.46.2.73h3.02c0-.81-.19-1.51-.56-2.12-.36-.61-.9-1.08-1.6-1.42-.7-.33-1.55-.51-2.56-.51-.93,0-1.73.15-2.41.46-.68.31-1.21.74-1.59,1.31-.37.57-.56,1.26-.56,2.06,0,1.13.38,2.04,1.13,2.71.74.68,1.75,1.08,3.02,1.19l.78.06c.72.06,1.23.19,1.53.38.3.2.46.47.46.83,0,.28-.09.52-.25.72-.16.21-.4.36-.71.47-.31.11-.68.16-1.11.16-.5,0-.92-.06-1.24-.2-.32-.14-.56-.33-.73-.56-.16-.25-.24-.51-.24-.8h-3.01c0,.81.2,1.51.59,2.14.4.62.98,1.1,1.76,1.46.77.36,1.73.54,2.88.54,1.06,0,1.97-.16,2.72-.48.76-.33,1.34-.78,1.75-1.38.4-.59.61-1.28.61-2.08s-.2-1.46-.6-2.01Z"/>
    <path class="st3" d="M210.22,500.45v9.85h3.12v-9.85h-3.12ZM206.87,498.07v2.72h9.82v-2.72h-9.82Z"/>
    <path class="st3" d="M226.23,506.03l-.64-.92h-3.39l.96,1.44,2.48,3.75h3.59l-2.99-4.28ZM227.87,499.86c-.41-.62-1.01-1.09-1.78-1.41-.77-.32-1.69-.48-2.75-.48h-2.75v2.62h2.94c.37,0,.68.07.95.22s.48.35.63.62c.15.26.22.58.22.96s-.07.67-.22.94c-.15.26-.36.47-.63.62-.27.15-.58.22-.95.22h-2.94v2.4h2.75c1.06,0,1.97-.15,2.74-.46.05-.02.1-.05.15-.06.7-.31,1.23-.75,1.63-1.32.41-.61.63-1.37.63-2.28v-.27c0-.92-.21-1.69-.62-2.3ZM218.26,497.97v12.34h3.12v-12.34h-3.12Z"/>
    <path class="st3" d="M238.35,504.93h-4.64l-.94,2.54h6.52l-.94-2.54ZM238.48,498.07h-5l-3.92,12.24h3.11l.87-2.84.77-2.54,1.33-4.34h.63l1.35,4.34.8,2.54.89,2.84h3.22l-4.06-12.24Z"/>
    <path class="st3" d="M245.22,500.45v9.85h3.12v-9.85h-3.12ZM241.86,498.07v2.72h9.82v-2.72h-9.82Z"/>
    <path class="st3" d="M255.95,507.76v2.55h5.16v-2.55h-5.16ZM255.95,502.81v2.55h4.81v-2.55h-4.81ZM255.95,498.07v2.55h5.06v-2.55h-5.06ZM253.26,498.07v12.24h3.01v-12.24h-3.01Z"/>
    <path class="st3" d="M268.63,503.8v2.18h6.81v-2.18h-6.81ZM271.58,506.62c-.2.29-.47.53-.82.73-.51.29-1.1.43-1.8.43-.55,0-1.03-.09-1.46-.26-.42-.18-.77-.44-1.05-.76-.28-.33-.49-.72-.64-1.16-.14-.44-.22-.92-.22-1.43s.07-.99.21-1.42c.13-.44.33-.82.59-1.13.26-.31.59-.57.97-.73.39-.17.83-.26,1.34-.26s.99.09,1.39.26c.41.17.74.41,1,.7.26.3.42.63.48.99h3.12c-.09-.96-.4-1.81-.93-2.53-.52-.73-1.22-1.31-2.08-1.72-.87-.41-1.86-.62-2.99-.62-1.05,0-1.97.19-2.75.55-.78.36-1.43.84-1.96,1.44-.52.6-.9,1.28-1.16,2.02-.26.75-.39,1.5-.39,2.25v.37c0,.7.13,1.42.37,2.16.25.74.63,1.42,1.16,2.05.53.62,1.2,1.13,2.03,1.52.83.38,1.82.57,2.97.57,1.24,0,2.33-.24,3.28-.71.94-.48,1.67-1.16,2.19-2.04v-2.52h-2.85v1.24Z"/>
    <path class="st3" d="M279.45,505.31v5h3.05v-5h-3.05ZM283.25,498.07l-2,5.3h-.42l-2.27-5.3h-3.19l3.47,7.64h4.26l3.17-7.64h-3.02Z"/>
    <path class="st20" d="M290.35,504.18v2.72h7.34v-2.72h-7.34Z"/>
    <path class="st3" d="M311.65,505.63c-.11.64-.44,1.15-.98,1.52-.54.38-1.2.57-1.98.57-.51,0-.95-.08-1.34-.24-.39-.16-.72-.4-1-.71-.27-.31-.48-.69-.62-1.12s-.21-.93-.21-1.48.07-1.04.21-1.47c.14-.43.34-.81.6-1.12.26-.31.59-.54.97-.71.39-.17.83-.26,1.3-.26.51,0,.97.09,1.37.26.4.17.73.41.99.72.26.31.43.68.51,1.11h3.11c-.09-.99-.4-1.86-.92-2.63-.53-.75-1.22-1.34-2.09-1.75-.87-.42-1.86-.63-2.97-.63-1.05,0-1.97.18-2.75.54-.78.36-1.43.84-1.96,1.44-.52.61-.9,1.28-1.15,2.02-.25.74-.38,1.5-.38,2.27v.37c0,.69.12,1.41.37,2.14.24.74.62,1.43,1.13,2.06.52.63,1.17,1.14,1.96,1.53.79.38,1.75.57,2.85.57,1.18,0,2.22-.22,3.08-.67.88-.46,1.57-1.06,2.08-1.82.51-.76.82-1.6.92-2.51h-3.12Z"/>
    <path class="st3" d="M319.17,505.31v5h3.04v-5h-3.04ZM322.98,498.07l-2.01,5.3h-.42l-2.26-5.3h-3.19l3.46,7.64h4.26l3.16-7.64h-3.01Z"/>
    <path class="st3" d="M336.51,504.77c-.27-.32-.62-.58-1.02-.78-.19-.09-.38-.16-.59-.23-.68-.21-1.45-.31-2.31-.31h-2.6v1.85h2.7c.46,0,.8.11,1.02.34.22.23.34.57.34,1.01s-.11.79-.34,1.03c-.22.23-.56.35-1.02.35h-2.7v2.38h2.6c.97,0,1.79-.14,2.46-.42.67-.28,1.18-.68,1.53-1.21.35-.52.52-1.15.52-1.89v-.24c0-.78-.19-1.4-.58-1.88ZM335.41,498.86c-.78-.6-1.89-.9-3.32-.9h-2.11v2.38h2.25c.46,0,.79.12.99.35.21.23.31.56.31.98,0,.41-.1.73-.31.96-.21.22-.54.34-.99.34h-2.25v1.85h2.11c.85,0,1.61-.1,2.29-.3.42-.12.79-.3,1.1-.53.18-.14.36-.29.5-.46.41-.46.6-1.08.6-1.85v-.26c0-1.11-.4-1.96-1.18-2.56ZM327.3,497.97v12.44h3.02v-12.44h-3.02Z"/>
    <path class="st3" d="M341.65,507.76v2.55h5.16v-2.55h-5.16ZM341.65,502.81v2.55h4.8v-2.55h-4.8ZM341.65,498.07v2.55h5.06v-2.55h-5.06ZM338.96,498.07v12.24h3.02v-12.24h-3.02Z"/>
    <path class="st3" d="M356.86,506.03l-.65-.92h-3.38l.95,1.44,2.48,3.75h3.59l-2.99-4.28ZM358.49,499.86c-.41-.62-1-1.09-1.77-1.41-.77-.32-1.69-.48-2.75-.48h-2.74v2.62h2.93c.37,0,.69.07.96.22.27.15.48.35.62.62.15.26.23.58.23.96s-.08.67-.23.94c-.15.26-.36.47-.62.62-.27.15-.59.22-.96.22h-2.93v2.4h2.74c1.07,0,1.98-.15,2.75-.46.05-.02.1-.04.15-.06.7-.31,1.23-.74,1.63-1.32.42-.61.63-1.37.63-2.28v-.27c0-.92-.21-1.69-.63-2.3ZM348.89,497.97v12.34h3.11v-12.34h-3.11Z"/>
    <path class="st3" d="M370.04,504.69c-.4-.55-.95-.98-1.65-1.3-.71-.32-1.52-.52-2.43-.59l-.79-.07c-.52-.05-.89-.18-1.1-.4-.21-.22-.32-.49-.32-.81,0-.24.05-.45.18-.64.11-.19.29-.34.52-.44.23-.1.51-.16.85-.16s.66.06.91.19c.25.13.44.31.57.53s.21.46.21.73h3.02c0-.81-.18-1.51-.56-2.12-.37-.61-.9-1.08-1.6-1.42-.7-.33-1.55-.51-2.55-.51-.93,0-1.74.15-2.42.46-.68.31-1.21.74-1.58,1.31-.38.57-.56,1.26-.56,2.06,0,1.13.37,2.04,1.12,2.71.75.68,1.75,1.08,3.01,1.19l.79.06c.72.06,1.22.19,1.52.38.31.2.46.47.46.83,0,.28-.08.52-.25.72-.16.21-.39.36-.7.47-.31.11-.67.16-1.12.16-.5,0-.91-.06-1.24-.2-.33-.14-.57-.33-.73-.56-.16-.25-.24-.51-.24-.8h-3.02c0,.81.2,1.51.59,2.14.41.62.98,1.1,1.76,1.46.78.36,1.74.54,2.87.54,1.07,0,1.97-.16,2.73-.48.76-.33,1.34-.78,1.75-1.38.41-.59.61-1.28.61-2.08s-.21-1.46-.61-2.01Z"/>
    <path class="st3" d="M374.94,507.76v2.55h5.16v-2.55h-5.16ZM374.94,502.81v2.55h4.81v-2.55h-4.81ZM374.94,498.07v2.55h5.06v-2.55h-5.06ZM372.26,498.07v12.24h3.02v-12.24h-3.02Z"/>
    <path class="st3" d="M390.73,505.63c-.11.64-.44,1.15-.98,1.52-.54.38-1.21.57-1.99.57-.51,0-.95-.08-1.34-.24-.4-.16-.73-.4-1-.71-.27-.31-.48-.69-.62-1.12s-.21-.93-.21-1.48.06-1.04.21-1.47c.14-.43.35-.81.61-1.12.26-.31.59-.54.97-.71.39-.17.82-.26,1.3-.26s.97.09,1.37.26c.4.17.73.41.99.72.26.31.42.68.51,1.11h3.11c-.09-.99-.4-1.86-.92-2.63-.53-.75-1.22-1.34-2.09-1.75-.87-.42-1.86-.63-2.97-.63-1.05,0-1.97.18-2.75.54-.78.36-1.43.84-1.95,1.44-.52.61-.91,1.28-1.16,2.02-.25.74-.38,1.5-.38,2.27v.37c0,.69.12,1.41.37,2.14.24.74.62,1.43,1.13,2.06.52.63,1.17,1.14,1.96,1.53.8.38,1.75.57,2.85.57,1.18,0,2.21-.22,3.08-.67.87-.46,1.57-1.06,2.08-1.82.52-.76.82-1.6.93-2.51h-3.12Z"/>
    <path class="st3" d="M403.05,498.07v7.29c0,.49-.09.91-.27,1.27-.18.36-.44.62-.78.81-.35.19-.77.28-1.28.28s-.93-.09-1.27-.28c-.35-.19-.61-.46-.8-.82-.19-.36-.27-.77-.27-1.26v-7.29h-3.12v7.23c0,1.09.21,2.04.64,2.84.43.8,1.04,1.42,1.85,1.85s1.81.65,2.98.65,2.17-.22,2.97-.65c.81-.43,1.43-1.05,1.85-1.85.42-.8.63-1.75.63-2.84v-7.23h-3.12Z"/>
    <path class="st3" d="M416.38,506.03l-.65-.92h-3.38l.95,1.44,2.48,3.75h3.59l-2.99-4.28ZM418.01,499.86c-.41-.62-1-1.09-1.77-1.41-.77-.32-1.69-.48-2.75-.48h-2.75v2.62h2.94c.37,0,.69.07.96.22s.47.35.62.62c.16.26.23.58.23.96s-.08.67-.23.94c-.15.26-.36.47-.62.62-.27.15-.59.22-.96.22h-2.94v2.4h2.75c1.06,0,1.98-.15,2.74-.46.05-.02.1-.05.16-.06.69-.31,1.24-.75,1.63-1.32.41-.61.62-1.37.62-2.28v-.27c0-.92-.21-1.69-.62-2.3ZM408.42,497.97v12.34h3.11v-12.34h-3.11Z"/>
    <path class="st3" d="M420.85,498.07v12.24h3.12v-12.24h-3.12Z"/>
    <path class="st3" d="M428.93,500.45v9.85h3.12v-9.85h-3.12ZM425.57,498.07v2.72h9.83v-2.72h-9.83Z"/>
    <path class="st3" d="M439.98,505.31v5h3.04v-5h-3.04ZM443.78,498.07l-2.01,5.3h-.43l-2.27-5.3h-3.18l3.46,7.64h4.26l3.17-7.64h-3.01Z"/>
    <path class="st20" d="M450.89,504.18v2.72h7.34v-2.72h-7.34Z"/>
    <path class="st3" d="M472.33,504.69c-.4-.55-.96-.98-1.66-1.3-.7-.32-1.51-.52-2.43-.59l-.78-.07c-.52-.05-.89-.18-1.11-.4-.21-.22-.32-.49-.32-.81,0-.24.06-.45.17-.64.12-.19.3-.34.52-.44s.51-.16.84-.16c.36,0,.67.06.91.19.26.13.45.31.58.53.13.22.21.46.21.73h3.01c0-.81-.19-1.51-.55-2.12-.37-.61-.91-1.08-1.6-1.42-.7-.33-1.55-.51-2.56-.51-.93,0-1.73.15-2.41.46-.68.31-1.21.74-1.59,1.31-.37.57-.56,1.26-.56,2.06,0,1.13.38,2.04,1.12,2.71.75.68,1.76,1.08,3.02,1.19l.78.06c.72.06,1.23.19,1.53.38.3.2.45.47.45.83,0,.28-.08.52-.24.72-.16.21-.4.36-.7.47-.31.11-.68.16-1.12.16-.51,0-.92-.06-1.24-.2-.32-.14-.57-.33-.73-.56-.16-.25-.24-.51-.24-.8h-3.01c0,.81.2,1.51.59,2.14.4.62.98,1.1,1.76,1.46.77.36,1.73.54,2.87.54,1.06,0,1.97-.16,2.73-.48.75-.33,1.34-.78,1.74-1.38.41-.59.62-1.28.62-2.08s-.21-1.46-.61-2.01Z"/>
    <path class="st3" d="M486.72,501.7c-.28-.75-.71-1.42-1.27-2.02-.56-.6-1.25-1.08-2.06-1.44-.83-.36-1.77-.54-2.84-.54s-2.03.18-2.86.54c-.83.36-1.51.84-2.07,1.44-.56.61-.98,1.28-1.26,2.02-.28.74-.42,1.5-.42,2.27v.37c0,.69.13,1.41.4,2.14.27.74.67,1.43,1.23,2.06.55.63,1.23,1.14,2.06,1.53.83.38,1.8.57,2.92.57s2.07-.19,2.9-.57c.83-.39,1.51-.89,2.06-1.53.55-.63.96-1.31,1.23-2.06.27-.73.41-1.45.41-2.14v-.37c0-.77-.14-1.52-.42-2.27ZM483.76,505.57c-.16.43-.39.81-.69,1.13-.3.32-.67.58-1.09.75-.42.19-.9.27-1.44.27s-1.02-.08-1.44-.27c-.43-.17-.79-.43-1.09-.75-.3-.32-.53-.7-.68-1.13-.16-.43-.23-.89-.23-1.4,0-.53.07-1.02.23-1.46.15-.44.38-.81.68-1.12.3-.31.67-.55,1.09-.72.42-.17.91-.26,1.44-.26s1,.08,1.43.26c.42.17.78.41,1.08.72.31.31.53.68.69,1.12.17.44.25.93.25,1.46s-.08.97-.24,1.4Z"/>
    <path class="st3" d="M491.8,503.02v2.55h4.54v-2.55h-4.54ZM491.8,498.07v2.55h4.72v-2.55h-4.72ZM489.02,498.07v12.24h3.12v-12.24h-3.12Z"/>
    <path class="st3" d="M500.99,500.45v9.85h3.12v-9.85h-3.12ZM497.64,498.07v2.72h9.82v-2.72h-9.82Z"/>
    <path class="st3" d="M522.77,498.07l-1.83,9.75h-.4l-1.86-9.32h-2.67l1.11,5.28,1.36,6.52h4.74l2.57-12.24h-3.01ZM515.6,498.5l-1.6,9.32h-.4l-2.11-9.75h-3.22l2.92,12.24h4.64l1.27-6.52,1.03-5.28h-2.53Z"/>
    <path class="st3" d="M534.36,504.93h-4.64l-.94,2.54h6.52l-.94-2.54ZM534.5,498.07h-5l-3.92,12.24h3.12l.87-2.84.77-2.54,1.33-4.34h.62l1.36,4.34.8,2.54.88,2.84h3.22l-4.05-12.24Z"/>
    <path class="st3" d="M547.9,506.03l-.65-.92h-3.39l.96,1.44,2.48,3.75h3.58l-2.99-4.28ZM549.53,499.86c-.41-.62-1.01-1.09-1.78-1.41-.77-.32-1.68-.48-2.74-.48h-2.75v2.62h2.94c.36,0,.68.07.95.22.27.15.48.35.63.62.15.26.22.58.22.96s-.08.67-.22.94c-.15.26-.36.47-.63.62-.26.15-.58.22-.95.22h-2.94v2.4h2.75c1.06,0,1.97-.15,2.74-.46.05-.02.1-.05.15-.06.69-.31,1.23-.75,1.62-1.32.42-.61.63-1.37.63-2.28v-.27c0-.92-.21-1.69-.62-2.3ZM539.92,497.97v12.34h3.12v-12.34h-3.12Z"/>
    <path class="st3" d="M555.01,507.76v2.55h5.16v-2.55h-5.16ZM555.01,502.81v2.55h4.81v-2.55h-4.81ZM555.01,498.07v2.55h5.06v-2.55h-5.06ZM552.33,498.07v12.24h3.02v-12.24h-3.02Z"/>
    <path class="st3" d="M574.51,504.69c-.4-.55-.96-.98-1.66-1.3-.7-.32-1.51-.52-2.43-.59l-.78-.07c-.53-.05-.89-.18-1.1-.4-.22-.22-.32-.49-.32-.81,0-.24.05-.45.17-.64.12-.19.29-.34.52-.44.22-.1.51-.16.84-.16.36,0,.67.06.92.19.26.13.45.31.58.53s.2.46.2.73h3.02c0-.81-.19-1.51-.56-2.12-.36-.61-.9-1.08-1.6-1.42-.7-.33-1.55-.51-2.56-.51-.93,0-1.73.15-2.41.46-.68.31-1.21.74-1.58,1.31-.38.57-.57,1.26-.57,2.06,0,1.13.38,2.04,1.13,2.71.75.68,1.75,1.08,3.02,1.19l.78.06c.72.06,1.23.19,1.53.38.3.2.46.47.46.83,0,.28-.09.52-.25.72-.16.21-.39.36-.71.47-.31.11-.67.16-1.11.16-.5,0-.92-.06-1.24-.2-.33-.14-.57-.33-.73-.56-.16-.25-.25-.51-.25-.8h-3.01c0,.81.2,1.51.59,2.14.4.62.98,1.1,1.76,1.46.77.36,1.73.54,2.87.54,1.06,0,1.97-.16,2.73-.48.76-.33,1.34-.78,1.75-1.38.4-.59.61-1.28.61-2.08s-.2-1.46-.6-2.01Z"/>
    <path class="st3" d="M588.9,501.7c-.29-.75-.71-1.42-1.26-2.02-.57-.6-1.25-1.08-2.07-1.44-.83-.36-1.78-.54-2.85-.54s-2.04.18-2.85.54c-.82.36-1.51.84-2.07,1.44-.56.61-.98,1.28-1.26,2.02-.28.74-.42,1.5-.42,2.27v.37c0,.69.13,1.41.4,2.14.27.74.68,1.43,1.23,2.06.54.63,1.23,1.14,2.06,1.53.82.38,1.79.57,2.91.57s2.07-.19,2.9-.57c.83-.39,1.51-.89,2.06-1.53.54-.63.96-1.31,1.23-2.06.27-.73.41-1.45.41-2.14v-.37c0-.77-.14-1.52-.43-2.27ZM585.94,505.57c-.16.43-.39.81-.69,1.13-.3.32-.66.58-1.09.75-.42.19-.91.27-1.44.27s-1.02-.08-1.44-.27c-.43-.17-.79-.43-1.09-.75-.3-.32-.53-.7-.69-1.13-.15-.43-.23-.89-.23-1.4,0-.53.08-1.02.23-1.46.16-.44.39-.81.69-1.12.3-.31.66-.55,1.09-.72.42-.17.9-.26,1.44-.26s1,.08,1.43.26c.42.17.78.41,1.08.72.31.31.54.68.7,1.12.16.44.24.93.24,1.46s-.08.97-.23,1.4Z"/>
    <path class="st3" d="M593.98,507.59v2.71h4.96v-2.71h-4.96ZM591.2,498.07v12.24h3.11v-12.24h-3.11Z"/>
    <path class="st3" d="M607.71,498.07v7.29c0,.49-.09.91-.26,1.27-.18.36-.44.62-.79.81-.34.19-.77.28-1.28.28s-.93-.09-1.27-.28c-.34-.19-.61-.46-.8-.82-.18-.36-.27-.77-.27-1.26v-7.29h-3.12v7.23c0,1.09.22,2.04.64,2.84.43.8,1.04,1.42,1.86,1.85.81.43,1.81.65,2.97.65s2.17-.22,2.98-.65,1.43-1.05,1.85-1.85c.42-.8.63-1.75.63-2.84v-7.23h-3.12Z"/>
    <path class="st3" d="M615.49,500.45v9.85h3.11v-9.85h-3.11ZM612.13,498.07v2.72h9.82v-2.72h-9.82Z"/>
    <path class="st3" d="M623.56,498.07v12.24h3.12v-12.24h-3.12Z"/>
    <path class="st3" d="M641.38,501.7c-.29-.75-.71-1.42-1.26-2.02-.57-.6-1.25-1.08-2.08-1.44-.82-.36-1.77-.54-2.84-.54s-2.04.18-2.85.54c-.82.36-1.51.84-2.07,1.44-.56.61-.98,1.28-1.26,2.02-.27.74-.41,1.5-.41,2.27v.37c0,.69.13,1.41.4,2.14.27.74.68,1.43,1.23,2.06.54.63,1.23,1.14,2.06,1.53.83.38,1.8.57,2.92.57s2.07-.19,2.9-.57c.83-.39,1.51-.89,2.06-1.53.54-.63.96-1.31,1.23-2.06.27-.73.41-1.45.41-2.14v-.37c0-.77-.14-1.52-.43-2.27ZM638.41,505.57c-.15.43-.38.81-.68,1.13-.3.32-.66.58-1.09.75-.42.19-.91.27-1.44.27s-1.02-.08-1.44-.27c-.43-.17-.79-.43-1.09-.75-.3-.32-.53-.7-.69-1.13-.15-.43-.24-.89-.24-1.4,0-.53.09-1.02.24-1.46.16-.44.39-.81.69-1.12.3-.31.66-.55,1.09-.72.42-.17.9-.26,1.44-.26s1,.08,1.43.26c.42.17.78.41,1.08.72.3.31.54.68.7,1.12.16.44.24.93.24,1.46s-.08.97-.24,1.4Z"/>
    <path class="st3" d="M653.12,498.07v9.75h-.25l-4.08-9.75h-5.11v12.24h2.89v-9.75h.25l4.08,9.75h5.15v-12.24h-2.92Z"/>
    <path class="st3" d="M667.35,504.69c-.4-.55-.95-.98-1.66-1.3-.7-.32-1.51-.52-2.42-.59l-.79-.07c-.52-.05-.89-.18-1.1-.4-.21-.22-.32-.49-.32-.81,0-.24.06-.45.18-.64.11-.19.29-.34.52-.44.23-.1.51-.16.85-.16.36,0,.66.06.91.19.25.13.44.31.57.53.14.22.21.46.21.73h3.01c0-.81-.18-1.51-.55-2.12-.37-.61-.91-1.08-1.6-1.42-.69-.33-1.55-.51-2.55-.51-.93,0-1.74.15-2.41.46-.68.31-1.22.74-1.59,1.31-.37.57-.56,1.26-.56,2.06,0,1.13.37,2.04,1.12,2.71.75.68,1.75,1.08,3.02,1.19l.78.06c.72.06,1.23.19,1.53.38.31.2.45.47.45.83,0,.28-.08.52-.24.72-.16.21-.4.36-.7.47-.31.11-.68.16-1.12.16-.5,0-.92-.06-1.24-.2-.33-.14-.57-.33-.73-.56-.16-.25-.24-.51-.24-.8h-3.02c0,.81.2,1.51.59,2.14.4.62.98,1.1,1.76,1.46.78.36,1.74.54,2.88.54,1.06,0,1.97-.16,2.73-.48.75-.33,1.33-.78,1.74-1.38.41-.59.61-1.28.61-2.08s-.2-1.46-.61-2.01Z"/>
  </g>
  <g>
    <path class="st13" d="M385.02,130.77s0,0,.01,0h-.02,0Z"/>
    <g>
      <polygon class="st33" points="448.43 274.64 414.32 274.64 430.45 313.93 464.53 313.93 448.43 274.64"/>
      <path class="st32" d="M378.76,234.42l.96.03.03-.03h-.99ZM345.68,234.44l-12.99,31.33-1.31,3.15c-.06.16-.13.32-.21.48-2.9,7.01-7.58,7.51-8.86,7.51-.08,0-.16,0-.24,0h-.09c-8.49-.48-15.85-6.73-17.41-15.48-1.81-10.21-11.56-17.03-21.78-15.21-10.21,1.81-17.02,11.56-15.21,21.76,1.82,10.22,11.57,17.04,21.77,15.23,10.22-1.81,19.97,4.99,21.78,15.21.61,3.47,2.13,6.52,4.28,9,3.49,4.04,8.64,6.51,14.19,6.51h1.4c9.46,0,18.04-5.63,21.71-14.35.05-.12.09-.24.14-.35.02-.03.02-.06.04-.08l3.59-8.94,6.47-15.44,3.79-8.98.37-.89.12-.29.18-.45.16-.38,9.85-23.75.88-2.12,1.11-2.67.25-.61h0s0-.02,0-.02l.07-.17h-34.06ZM285.88,274.89c-5.74,0-10.39-4.66-10.39-10.4s4.65-10.38,10.39-10.38,10.4,4.65,10.4,10.38-4.66,10.4-10.4,10.4ZM331.18,306.97c-5.74,0-10.4-4.66-10.4-10.4s4.65-10.39,10.4-10.39,10.38,4.65,10.38,10.39-4.64,10.4-10.38,10.4Z"/>
      <path class="st22" d="M385.03,130.77h-.02.02Z"/>
      <path class="st24" d="M403.61,167.47l-11.53-27.66c-.04-.11-.09-.22-.13-.33,0-.02-.02-.05-.04-.07-1.97-4.7-5.38-7.42-7.69-8.8-.4-.25-.83-.44-1.25-.63-.38-.17-.75-.35-1.12-.55-.02-.02-.05-.03-.06-.04h0c-4.91-2.62-8.6-7.39-9.65-13.29-1.82-10.21-11.57-17.02-21.78-15.21-10.22,1.81-17.02,11.57-15.21,21.77,1.81,10.22,11.57,17.04,21.78,15.22,6.97-1.23,13.73,1.56,17.9,6.71.97,1.21,5.2,7.29,1.2,16.83l-5.6,13.45c-.99,2.37-4.5,2.04-4.96-.49,0-.03,0-.05,0-.07-1.82-10.21-11.57-17.03-21.78-15.21-10.21,1.8-17.02,11.55-15.21,21.76,1.81,10.22,11.56,17.04,21.77,15.22,2.73-.49,5.44-.35,7.97.31,1.54.39,2.37,2.07,1.77,3.53l-10.7,25.65h33.99l.07-.18,5.24-12.21,8.9,21.25h34.1l-27.94-66.97ZM353.24,129.92c-5.74,0-10.39-4.64-10.39-10.39s4.64-10.39,10.39-10.39,10.4,4.65,10.4,10.39-4.66,10.39-10.4,10.39ZM347.16,188.07c-5.74,0-10.39-4.65-10.39-10.4s4.64-10.39,10.39-10.39,10.39,4.65,10.39,10.39-4.65,10.4-10.39,10.4Z"/>
      <path class="st12" d="M313.91,145.31c-1.03-5.81-6.57-9.68-12.38-8.66-5.81,1.03-9.69,6.57-8.65,12.39,1.03,5.8,6.57,9.67,12.37,8.65,5.8-1.04,9.68-6.58,8.65-12.39ZM303.4,153.8c-3.66,0-6.65-2.96-6.65-6.63s2.99-6.63,6.65-6.63,6.63,2.97,6.63,6.63-2.97,6.63-6.63,6.63Z"/>
      <path class="st1" d="M335,217.88c-1.81-10.22-11.56-17.03-21.77-15.21-10.22,1.81-19.96-5-21.77-15.23-1.81-10.21-11.57-17.02-21.77-15.21-10.22,1.81-17.02,11.56-15.22,21.77,1.81,10.22,11.57,17.04,21.77,15.22,10.22-1.81,19.96,5,21.78,15.21,1.81,10.22,11.56,17.04,21.78,15.22,10.21-1.81,17.02-11.55,15.2-21.77ZM272.06,200.54c-5.74,0-10.39-4.65-10.39-10.39s4.64-10.39,10.39-10.39,10.39,4.64,10.39,10.39-4.65,10.39-10.39,10.39ZM316.16,231.21c-5.74,0-10.39-4.64-10.39-10.38s4.64-10.4,10.39-10.4,10.39,4.65,10.39,10.4-4.65,10.38-10.39,10.38Z"/>
    </g>
    <g>
      <g>
        <path class="st0" d="M414.61,139.37h30.32l-14.88-24.35c-7.92,5.72-13.58,14.36-15.45,24.35Z"/>
        <path class="st21" d="M455.67,139.19l26.29.09h1.13s.22,0,.22,0l-19.17-31.38-19.22,31.47h8.94c.56-.12,1.16-.19,1.79-.19Z"/>
        <polygon class="st27" points="518 139.41 518.02 139.37 518.43 138.84 518.69 138.47 520.11 136.58 502.59 107.91 483.42 139.29 508.02 139.37 518 139.41"/>
        <path class="st6" d="M415.02,155.71h0c1.33,5.54,3.85,10.7,7.36,15.12h3.34l-11.36-18.6c.17,1.17.39,2.33.66,3.48Z"/>
        <path class="st2" d="M455.28,156.48l-3.55-2c-3.02-1.62-4.16-4.38-4.16-6.95,0-1.02.18-2.04.53-3l-3.16-5.17-19.22,31.46h38.44l-8.71-14.25-.17-.1Z"/>
        <polygon class="st5" points="468.67 164 468.41 163.86 464.16 170.83 480.82 170.83 468.67 164"/>
        <polygon class="st34" points="451.96 190.79 452.77 191.24 472.55 202.29 483.37 202.29 464.16 170.83 451.96 190.79"/>
        <path class="st28" d="M513.96,189.45c-.11-.07-.22-.13-.34-.19l-3.71-2.08-12.88-7.24-13.66,22.36h38.44l-7.85-12.84h0Z"/>
        <path class="st44" d="M524.46,197.96l-2.65,4.34h6c-1.01-1.52-2.13-2.97-3.35-4.34Z"/>
        <polygon class="st29" points="486.6 210.15 488.99 211.49 483.37 202.29 480.62 206.8 486.6 210.15"/>
        <path class="st9" d="M498.23,230.07c-1.12,1.62-2.7,2.94-4.67,3.69h9.03l-3.36-5.49c-.28.63-.62,1.23-1.01,1.8Z"/>
        <path class="st16" d="M534.67,223.35h0s-12.86-21.06-12.86-21.06l-19.22,31.46h31.14c.33-1.47.58-2.98.74-4.51.15-1.42.23-2.85.23-4.31,0-.53,0-1.06-.03-1.59Z"/>
        <path class="st46" d="M425.76,174.59c1.42,1.38,2.96,2.67,4.6,3.84l-4.64-7.6-1.39,2.28c.47.5.94,1,1.44,1.48Z"/>
        <path class="st18" d="M483.57,264.89l-.2.33-18.81-30.78h-.83l-18.8,30.78-18.8-30.78h-.83l-18.81,30.78-.2-.33-15.15-24.8h0s-3.45-5.65-3.45-5.65h-.83l-18.61,30.45-.2.33h0l-.33.56h125.97c2.29,0,4.54-.19,6.73-.56,5.42-.9,10.49-2.88,14.99-5.69.7-.44,1.39-.9,2.06-1.39l-14.89-24.38-19.02,31.13Z"/>
      </g>
      <g>
        <path class="st14" d="M256.27,230.24c-3.76.67-6.28,4.26-5.61,8.03.67,3.77,4.26,6.28,8.03,5.61,3.76-.67,6.28-4.26,5.61-8.03-.67-3.76-4.26-6.27-8.03-5.61Z"/>
        <path class="st8" d="M321.38,252.34c-1.89.33-3.14,2.13-2.8,4.01.33,1.89,2.13,3.14,4.01,2.8,1.89-.33,3.14-2.13,2.8-4.01-.33-1.89-2.13-3.14-4.01-2.8Z"/>
        <path class="st19" d="M372.49,282.01c-.3-.03-.6-.03-.91.02-.46.08-.87.25-1.24.49-.01,0-.03.01-.04.02,0,0-.01.01-.02.02-1.12.74-1.75,2.09-1.51,3.49.3,1.65,1.71,2.81,3.32,2.85.23,0,.46,0,.7-.05,1.64-.29,2.81-1.7,2.85-3.3,0-.23,0-.47-.05-.71-.28-1.57-1.58-2.69-3.1-2.83Z"/>
        <path class="st17" d="M312.1,179.61c-1.88.33-3.13,2.13-2.8,4.01.33,1.88,2.13,3.13,4.01,2.8,1.88-.33,3.13-2.13,2.8-4.01-.34-1.88-2.13-3.13-4.01-2.8Z"/>
        <path class="st15" d="M312.64,113.74c-.33-1.88-2.13-3.13-4.01-2.8-1.88.33-3.13,2.13-2.8,4.01.33,1.88,2.13,3.13,4.01,2.8,1.88-.33,3.13-2.13,2.8-4.01Z"/>
        <path class="st36" d="M399.19,296.05c-.56-3.15-3.56-5.24-6.7-4.68-3.15.56-5.24,3.56-4.69,6.7.17.98.59,1.86,1.17,2.59,1.28,1.6,3.37,2.48,5.54,2.09,2.55-.45,4.41-2.52,4.73-4.96.07-.57.06-1.15-.04-1.74Z"/>
      </g>
      <g>
        <path class="st10" d="M501.41,107.9h-6.72s-29.96-.09-29.96-.09h-.64s-.5,0-.5,0h-4.87s-5.85-.14-5.85-.14c-1.47,0-2.94.08-4.37.25-1.7.19-3.36.48-4.98.88-4.63,1.14-8.94,3.1-12.74,5.72-.25.17-.48.33-.72.51l14.88,24.35,19.22-31.46,19.17,31.38h.1l19.17-31.38h-1.18Z"/>
        <polygon class="st26" points="541.45 107.99 541.45 107.99 541.45 107.98 541.08 107.98 541.03 107.91 540.98 107.98 540.97 107.98 538.09 107.98 537.14 107.98 503.51 107.91 502.59 107.91 520.11 136.58 526.02 128.67 538.8 111.55 538.8 111.54 538.82 111.52 538.84 111.49 539.04 111.22 540.85 108.79 541.24 108.26 541.24 108.26 541.24 108.26 541.45 107.99"/>
        <path class="st7" d="M414.61,139.37c-.05.29-.11.59-.15.88-.09.56-.17,1.12-.23,1.68h0c-.18,1.53-.27,3.09-.27,4.67,0,.7.02,1.4.05,2.09.06,1.19.18,2.37.35,3.54l11.36,18.6,19.22-31.46h-30.32Z"/>
        <path class="st42" d="M448.17,144.31c.65-1.66,1.81-3.13,3.41-4.06.69-.4,1.45-.71,2.3-.88h-8.94l3.16,5.17c.02-.07.05-.15.08-.22Z"/>
        <polygon class="st4" points="455.45 156.58 464.16 170.83 468.41 163.86 455.45 156.58"/>
        <path class="st39" d="M423.1,171.71c.4.48.81.94,1.23,1.4l1.39-2.28h-3.34c.23.3.48.59.72.88Z"/>
        <path class="st30" d="M430.36,178.43c.54.38,1.09.76,1.65,1.12.61.39,1.23.76,1.86,1.12l18.09,10.11,12.19-19.95h-38.44l4.64,7.6Z"/>
        <polygon class="st40" points="496.33 179.54 482.39 171.71 480.82 170.83 464.16 170.83 483.37 202.29 497.03 179.94 496.33 179.54"/>
        <path class="st23" d="M523.14,196.53c-2.68-2.75-5.75-5.14-9.17-7.08h0l7.85,12.84,2.65-4.34c-.43-.48-.87-.96-1.32-1.43Z"/>
        <polygon class="st37" points="474.12 203.18 480.46 206.72 480.62 206.8 483.37 202.29 472.55 202.29 474.12 203.18"/>
        <path class="st35" d="M483.37,202.29l5.61,9.19h0s5.86,3.28,5.86,3.28c3.69,2.09,5.33,5.56,5.33,9.03,0,1.53-.33,3.07-.94,4.47l3.36,5.49,19.22-31.46h-38.44Z"/>
        <path class="st31" d="M528.38,203.18c-.19-.3-.38-.59-.57-.88h-6l12.86,21.05c-.29-7.27-2.51-14.2-6.29-20.17Z"/>
        <polygon class="st11" points="379.74 234.44 379.74 234.44 379.74 234.44 379.66 234.63 379.67 234.62 379.66 234.63 379.66 234.64 379.41 235.25 378.3 237.91 379.41 235.25 368.99 260.35 367.42 264.16 367.57 263.78 367.42 264.16 367.42 264.16 367.42 264.16 367.23 264.61 367.11 264.89 367.11 264.89 366.75 265.78 366.75 265.78 367.72 265.78 367.72 265.78 368.06 265.22 368.06 265.22 368.07 265.22 368.26 264.89 386.87 234.44 379.74 234.44 379.74 234.44"/>
        <polygon class="st41" points="444.94 265.22 463.74 234.44 426.14 234.44 444.94 265.22"/>
        <path class="st43" d="M493.56,233.76c-1.15.44-2.42.68-3.83.68h-25.16l18.8,30.78.2-.33,19.02-31.13,14.89,24.38c7.85-5.6,13.67-13.89,16.04-23.5.07-.29.14-.59.21-.88h-40.17Z"/>
        <polygon class="st25" points="393.49 234.44 393.49 234.44 387.7 234.44 387.7 234.44 391.15 240.09 391.15 240.09 391.15 240.09 391.17 240.12 403.61 260.49 406.3 264.89 406.5 265.22 406.5 265.22 406.5 265.22 425.31 234.44 425.31 234.44 393.49 234.44"/>
      </g>
      <path class="st45" d="M385.34,164.09c-.3-.03-.6-.03-.91.02-.46.08-.87.25-1.24.49-.01,0-.03.01-.04.02,0,0-.01.01-.02.02-1.12.74-1.75,2.09-1.51,3.49.3,1.65,1.71,2.81,3.32,2.85.23,0,.46,0,.7-.05,1.64-.29,2.81-1.7,2.85-3.3,0-.23,0-.47-.05-.71-.28-1.57-1.58-2.69-3.1-2.83Z"/>
      <path class="st45" d="M359.65,239.96c-.26-.02-.52-.03-.79.02-.4.07-.76.22-1.08.42-.01,0-.02.01-.03.02,0,0-.01.01-.02.02-.97.64-1.52,1.81-1.31,3.03.26,1.43,1.48,2.44,2.88,2.48.2,0,.4,0,.61-.04,1.42-.25,2.44-1.47,2.47-2.87,0-.2,0-.41-.05-.62-.24-1.36-1.37-2.33-2.69-2.45Z"/>
    </g>
    <g>
      <g>
        <path class="st45" d="M358.29,117.05h-7.09s-2.05,0-2.05,0h-.99c-.57,0-1.06.44-1.06,1.03v7.13c0,.54.35.91.86,1.05h10.56c.5-.12.86-.5.86-1.05v-7.13c0-.61-.5-1.03-1.09-1.03ZM353.76,122.02v1.17c0,.28-.23.5-.5.5-.25,0-.51-.2-.52-.48v-1.2c-.56-.34-.67-1.06-.27-1.53.4-.47,1.14-.49,1.55-.02.41.47.33,1.21-.25,1.55Z"/>
        <path class="st45" d="M279.92,191.42c-.1-1.43-.99-2.54-2.2-2.89-.19-.83-.62-1.58-1.23-2.09-.71-.6-1.55-.86-2.43-.76-.96-1.38-2.57-2-4.15-1.52-1.4.42-2.46,1.68-2.78,3.21-.54.09-1.06.31-1.51.66-.79.62-1.31,1.6-1.41,2.68-.11,1.11.27,2.26,1,3.06.62.68,1.43,1.05,2.3,1.05h9.61s0,0,0,0c.71,0,1.38-.3,1.9-.86.63-.67.96-1.63.89-2.56ZM277.59,192.65c-.15.16-.3.24-.47.24h-9.61c-.39,0-.68-.23-.85-.42-.36-.4-.55-1-.5-1.57.05-.55.3-1.04.67-1.33.18-.14.46-.29.83-.29.07,0,.14,0,.21.02l1.11.16v-1.13c.01-1.09.62-2.04,1.5-2.3.86-.26,1.77.22,2.21,1.17l.37.8.83-.29c.51-.18.95-.1,1.35.23.38.32.62.89.64,1.49l.02.99.99-.04c.58-.02,1.03.47,1.08,1.18.03.39-.12.83-.37,1.09Z"/>
      </g>
      <path class="st38" d="M353.58,111.69c-.24-.04-.67,0-.67,0-2.15.21-3.76,1.97-3.76,4.15v1.21h2.05s0-1.29,0-1.29c0-1.13.93-2.02,2.03-2.03,1.09,0,2.05.86,2.05,1.99v1.32h2.06v-1.27c0-2.14-1.64-3.88-3.76-4.09Z"/>
      <g>
        <path class="st45" d="M349.75,182.93c0,1.43-1.16,2.59-2.59,2.59s-2.59-1.16-2.59-2.59,1.16-2.59,2.59-2.59,2.59,1.16,2.59,2.59Z"/>
        <path class="st38" d="M351.27,179.21c.01.27-.09.52-.27.72-.19.2-.46.32-.74.32-.25,0-.5-.1-.69-.27-.66-.62-1.52-.96-2.42-.96s-1.76.34-2.42.96c-.2.18-.45.28-.72.27-.27,0-.52-.12-.71-.32-.18-.2-.28-.45-.27-.72,0-.27.12-.52.32-.7,1.04-.96,2.38-1.5,3.79-1.5s2.76.54,3.79,1.5c.2.19.31.44.32.7Z"/>
        <path class="st38" d="M353.11,176.79c0,.27-.09.53-.27.72-.36.39-1.03.41-1.42.05-1.16-1.08-2.67-1.68-4.25-1.68s-3.09.6-4.25,1.69c-.19.17-.43.27-.69.27-.3,0-.55-.12-.74-.32-.18-.2-.28-.45-.27-.72,0-.27.12-.52.32-.7,1.53-1.44,3.53-2.23,5.63-2.23s4.09.79,5.63,2.23c.2.18.31.43.32.7Z"/>
        <path class="st38" d="M355.13,174.09c0,.27-.09.52-.27.72-.19.2-.46.32-.74.32-.26,0-.5-.1-.69-.27-1.71-1.6-3.93-2.47-6.27-2.47s-4.57.88-6.27,2.47c-.2.19-.45.28-.72.27-.27,0-.52-.12-.7-.32-.38-.41-.36-1.05.05-1.43,2.08-1.95,4.8-3.02,7.65-3.02s5.56,1.07,7.65,3.02c.2.19.31.44.32.71Z"/>
      </g>
    </g>
    <path class="st45" d="M336.99,291.71c-.57-.67-1.25-1.24-2-1.68-.75-.44-1.57-.74-2.44-.9h0c-.91-.17-1.83-.17-2.74,0-.86.16-1.69.46-2.44.9-.75.44-1.43,1.01-2,1.68-.58.68-1.03,1.46-1.33,2.29-.3.83-.46,1.71-.46,2.61,0,1.79.64,3.53,1.79,4.89,0,0,0,0,0,0,0,0,0,.01.01.02,1.13,1.33,2.7,2.24,4.41,2.55h0s.01,0,.02,0h0c.45.08.9.12,1.34.12s.9-.04,1.34-.12c0,0,.02,0,.03,0h0c1.71-.31,3.28-1.22,4.42-2.55,0,0,0,0,.01-.02,0,0,0,0,0,0,1.15-1.37,1.79-3.11,1.79-4.89s-.64-3.53-1.79-4.9ZM336.12,293c.61.84,1,1.83,1.13,2.86h-2.56c-.04-.86-.15-1.71-.32-2.56.59-.08,1.18-.18,1.76-.3ZM334.89,291.73c-.3.05-.59.1-.89.13-.09-.28-.18-.55-.28-.83.41.19.8.42,1.16.7ZM330.43,290.53c.5-.06.99-.06,1.48,0,.22.48.41.97.58,1.47-.88.05-1.76.05-2.64,0,.16-.5.36-1,.58-1.47ZM326.22,293c.58.12,1.17.23,1.76.3-.17.84-.28,1.7-.32,2.56h-2.56c.12-1.03.51-2.02,1.12-2.86ZM325.1,297.34h2.56c.04.86.15,1.71.32,2.56-.59.08-1.17.18-1.76.3-.61-.84-1-1.83-1.12-2.86ZM327.46,301.47c.3-.05.59-.1.88-.13.09.28.18.55.28.83-.41-.19-.81-.42-1.16-.7ZM328.35,291.86c-.3-.04-.59-.08-.88-.13.36-.27.75-.51,1.16-.7-.1.27-.2.55-.28.83ZM331.91,302.68c-.5.06-.98.06-1.48,0-.22-.48-.41-.97-.58-1.47.88-.05,1.76-.05,2.64,0-.17.5-.36,1-.58,1.47ZM332.89,299.74c-1.14-.08-2.29-.08-3.43,0-.17-.79-.28-1.59-.32-2.4h4.08c-.04.81-.15,1.61-.32,2.4ZM329.14,295.86c.04-.81.15-1.61.32-2.4.57.04,1.15.06,1.72.06s1.15-.02,1.71-.06c.17.79.28,1.59.32,2.4h-4.08ZM333.72,302.17c.1-.27.19-.55.28-.83.3.04.59.08.89.13-.36.27-.75.51-1.16.7ZM336.12,300.2c-.58-.12-1.16-.23-1.76-.3.18-.84.28-1.7.32-2.56h2.56c-.13,1.03-.51,2.02-1.13,2.86Z"/>
    <g>
      <path class="st45" d="M284.57,261.67h2.61c.37,0,.68.3.68.68v7.28c0,.37-.3.68-.68.68h-2.61c-.37,0-.68-.3-.68-.68v-7.28c0-.37.3-.68.68-.68Z"/>
      <rect class="st45" x="289.21" y="258.69" width="3.97" height="11.61" rx=".68" ry=".68"/>
      <path class="st45" d="M279.26,264.44h2.61c.37,0,.68.3.68.68v4.51c0,.37-.3.68-.68.68h-2.61c-.37,0-.68-.3-.68-.68v-4.51c0-.37.3-.68.68-.68Z"/>
    </g>
    <g>
      <path class="st38" d="M319.21,219.67c-.23-.23-.49-.43-.77-.59l-1.47,1.47c.33.06.64.23.88.47.24.24.41.55.47.88l1.47-1.47c-.16-.28-.35-.53-.59-.77Z"/>
      <g>
        <path class="st45" d="M319.79,220.44c-.16-.28-.35-.53-.59-.77-.23-.23-.49-.43-.77-.59-.54-.31-1.16-.48-1.81-.48-.97,0-1.89.38-2.57,1.07l-.06.06h0c.07.33.23.64.47.88.24.24.55.41.88.47l.06-.06c.33-.33.76-.51,1.22-.51.12,0,.23.01.34.03.33.06.64.23.88.47.24.24.41.55.47.88.02.11.03.22.03.34,0,.46-.18.89-.51,1.22l-2.79,2.79c-.67.67-1.77.67-2.44,0-.33-.33-.5-.76-.5-1.22s.18-.89.5-1.22l1.26-1.26c-.28-.16-.54-.36-.77-.59-.23-.23-.43-.49-.59-.77l-1.26,1.26c-.69.69-1.07,1.6-1.07,2.57s.38,1.89,1.07,2.57c.69.69,1.6,1.07,2.57,1.07s1.89-.38,2.57-1.07l2.79-2.79c.69-.69,1.07-1.6,1.07-2.57,0-.64-.17-1.26-.48-1.81Z"/>
        <path class="st38" d="M321.06,219.17l-1.26,1.26c-.16-.28-.35-.53-.59-.77-.23-.23-.49-.43-.77-.59l1.26-1.26c.67-.67.67-1.77,0-2.44-.32-.32-.76-.5-1.22-.5s-.89.18-1.22.5l-2.79,2.79c-.33.32-.51.76-.51,1.22,0,.11.01.23.03.34h0c.07.33.23.64.47.88.24.24.55.41.88.47.11.02.22.03.34.03.46,0,.89-.18,1.22-.5l.06-.06c.33.06.64.23.88.47.24.24.41.55.47.88l-.06.06c-.69.69-1.6,1.07-2.57,1.07-.65,0-1.26-.17-1.81-.48-.28-.16-.54-.36-.77-.59-.23-.23-.43-.49-.59-.77-.31-.54-.48-1.16-.48-1.81,0-.97.38-1.89,1.07-2.57l2.79-2.79c.69-.69,1.6-1.07,2.57-1.07.49,0,.96.09,1.39.27.44.18.84.45,1.18.79,1.42,1.42,1.42,3.73,0,5.15Z"/>
      </g>
    </g>
    <path class="st45" d="M307.72,143.74l-4.29-1.67-4.31,1.66v2.51c0,.68.14,1.36.26,2.02.41,1.93,2.37,3.37,4.06,4.18,1.91-1.01,3.7-2.28,4.09-4.49.11-.64.2-1.3.2-1.96v-2.26ZM305.43,147.59c-.16.89-.76,1.62-2.02,2.42-1.07-.67-1.79-1.46-1.95-2.16l-.05-.28c-.09-.49-.17-.94-.17-1.33v-1.05s2.18-.84,2.18-.84l2.17.84v.81c0,.45-.05.95-.16,1.59Z"/>
  </g>
</svg>